<svg width="65" height="72" viewBox="0 0 65 72" fill="none" xmlns="http://www.w3.org/2000/svg">
<path d="M40.625 9H13.5417C12.1051 9 10.7273 9.63214 9.7115 10.7574C8.69568 11.8826 8.125 13.4087 8.125 15V57C8.125 58.5913 8.69568 60.1174 9.7115 61.2426C10.7273 62.3679 12.1051 63 13.5417 63H51.4583C52.8949 63 54.2727 62.3679 55.2885 61.2426C56.3043 60.1174 56.875 58.5913 56.875 57V27L40.625 9ZM51.4583 57H13.5417V15H37.9167V30H51.4583M46.0417 42H18.9583V36H46.0417M37.9167 51H18.9583V45H37.9167" fill="#1360EE"/>
</svg>
