<svg width="28" height="25" viewBox="0 0 28 25" fill="none" xmlns="http://www.w3.org/2000/svg">
<g filter="url(#filter0_dd_284_2524)">
<path d="M23.3211 9.74688C23.2937 9.68516 22.632 8.21719 21.1609 6.74609C19.2008 4.78594 16.725 3.75 14 3.75C11.275 3.75 8.79921 4.78594 6.83906 6.74609C5.36796 8.21719 4.70312 9.6875 4.6789 9.74688C4.64336 9.82681 4.625 9.91331 4.625 10.0008C4.625 10.0883 4.64336 10.1748 4.6789 10.2547C4.70624 10.3164 5.36796 11.7836 6.83906 13.2547C8.79921 15.2141 11.275 16.25 14 16.25C16.725 16.25 19.2008 15.2141 21.1609 13.2547C22.632 11.7836 23.2937 10.3164 23.3211 10.2547C23.3566 10.1748 23.375 10.0883 23.375 10.0008C23.375 9.91331 23.3566 9.82681 23.3211 9.74688ZM14 15C11.5953 15 9.49452 14.1258 7.75546 12.4023C7.0419 11.6927 6.43483 10.8836 5.95312 10C6.4347 9.11636 7.04179 8.30717 7.75546 7.59766C9.49452 5.87422 11.5953 5 14 5C16.4047 5 18.5055 5.87422 20.2445 7.59766C20.9595 8.307 21.5679 9.11619 22.0508 10C21.4875 11.0516 19.0336 15 14 15ZM14 6.25C13.2583 6.25 12.5333 6.46993 11.9166 6.88199C11.2999 7.29404 10.8193 7.87971 10.5354 8.56494C10.2516 9.25016 10.1774 10.0042 10.322 10.7316C10.4667 11.459 10.8239 12.1272 11.3483 12.6517C11.8728 13.1761 12.541 13.5333 13.2684 13.6779C13.9958 13.8226 14.7498 13.7484 15.4351 13.4645C16.1203 13.1807 16.7059 12.7001 17.118 12.0834C17.5301 11.4667 17.75 10.7417 17.75 10C17.749 9.00576 17.3535 8.05253 16.6505 7.34949C15.9475 6.64645 14.9942 6.25103 14 6.25ZM14 12.5C13.5055 12.5 13.0222 12.3534 12.6111 12.0787C12.1999 11.804 11.8795 11.4135 11.6903 10.9567C11.5011 10.4999 11.4516 9.99723 11.548 9.51227C11.6445 9.02732 11.8826 8.58186 12.2322 8.23223C12.5819 7.8826 13.0273 7.6445 13.5123 7.54804C13.9972 7.45157 14.4999 7.50108 14.9567 7.6903C15.4135 7.87952 15.804 8.19995 16.0787 8.61107C16.3534 9.0222 16.5 9.50555 16.5 10C16.5 10.663 16.2366 11.2989 15.7678 11.7678C15.2989 12.2366 14.663 12.5 14 12.5Z" fill="black" fill-opacity="0.7"/>
</g>
<defs>
<filter id="filter0_dd_284_2524" x="0" y="0" width="28" height="28" filterUnits="userSpaceOnUse" color-interpolation-filters="sRGB">
<feFlood flood-opacity="0" result="BackgroundImageFix"/>
<feColorMatrix in="SourceAlpha" type="matrix" values="0 0 0 0 0 0 0 0 0 0 0 0 0 0 0 0 0 0 127 0" result="hardAlpha"/>
<feOffset dy="4"/>
<feGaussianBlur stdDeviation="2"/>
<feComposite in2="hardAlpha" operator="out"/>
<feColorMatrix type="matrix" values="0 0 0 0 0 0 0 0 0 0 0 0 0 0 0 0 0 0 0.25 0"/>
<feBlend mode="normal" in2="BackgroundImageFix" result="effect1_dropShadow_284_2524"/>
<feColorMatrix in="SourceAlpha" type="matrix" values="0 0 0 0 0 0 0 0 0 0 0 0 0 0 0 0 0 0 127 0" result="hardAlpha"/>
<feOffset dy="4"/>
<feGaussianBlur stdDeviation="2"/>
<feComposite in2="hardAlpha" operator="out"/>
<feColorMatrix type="matrix" values="0 0 0 0 0 0 0 0 0 0 0 0 0 0 0 0 0 0 0.25 0"/>
<feBlend mode="normal" in2="effect1_dropShadow_284_2524" result="effect2_dropShadow_284_2524"/>
<feBlend mode="normal" in="SourceGraphic" in2="effect2_dropShadow_284_2524" result="shape"/>
</filter>
</defs>
</svg>
